<svg xmlns="http://www.w3.org/2000/svg" xmlns:xlink="http://www.w3.org/1999/xlink" width="49.837" height="47.573" viewBox="0 0 49.837 47.573">
  <defs>
    <clipPath id="clip-path">
      <rect id="Rectangle_7" data-name="Rectangle 7" width="49.837" height="47.572" fill="none"/>
    </clipPath>
  </defs>
  <g id="Group_816" data-name="Group 816" transform="translate(-362 -1752.815)">
    <rect id="Rectangle_678" data-name="Rectangle 678" width="49.837" height="6.796" transform="translate(362 1752.815)" fill="#fff"/>
    <rect id="Rectangle_679" data-name="Rectangle 679" width="6.796" height="43.041" transform="translate(383.52 1757.346)" fill="#fff"/>
    <g id="Group_815" data-name="Group 815" transform="translate(362 1752.816)">
      <g id="Group_14" data-name="Group 14" clip-path="url(#clip-path)">
        <path id="Path_2" data-name="Path 2" d="M3.552,16.935h6.8a1.133,1.133,0,0,1,1.132,1.133v6.8A1.133,1.133,0,0,1,10.348,26h-6.8a1.133,1.133,0,0,1-1.133-1.133v-6.8a1.133,1.133,0,0,1,1.133-1.133" transform="translate(-0.154 -1.077)" fill="#00ec96"/>
        <path id="Path_3" data-name="Path 3" d="M3.552,36.288h6.8a1.133,1.133,0,0,1,1.132,1.133v6.8a1.133,1.133,0,0,1-1.132,1.133h-6.8a1.133,1.133,0,0,1-1.133-1.133v-6.8a1.133,1.133,0,0,1,1.133-1.133" transform="translate(-0.154 -2.309)" fill="#f7f7f7" fill-rule="evenodd"/>
        <path id="Path_4" data-name="Path 4" d="M42.259,16.935h6.8a1.133,1.133,0,0,1,1.132,1.133v6.8A1.133,1.133,0,0,1,49.055,26h-6.8a1.133,1.133,0,0,1-1.133-1.133v-6.8a1.133,1.133,0,0,1,1.133-1.133" transform="translate(-2.617 -1.077)" fill="#f7f7f7" fill-rule="evenodd"/>
        <path id="Path_5" data-name="Path 5" d="M42.259,36.288h6.8a1.133,1.133,0,0,1,1.132,1.133v6.8a1.133,1.133,0,0,1-1.132,1.133h-6.8a1.133,1.133,0,0,1-1.133-1.133v-6.8a1.133,1.133,0,0,1,1.133-1.133" transform="translate(-2.617 -2.309)" fill="#00ec96"/>
      </g>
    </g>
  </g>
</svg>
