<svg xmlns="http://www.w3.org/2000/svg" xmlns:xlink="http://www.w3.org/1999/xlink" width="54.161" height="52.907" viewBox="0 0 54.161 52.907">
  <defs>
    <clipPath id="clip-path">
      <rect id="Rectangle_735" data-name="Rectangle 735" width="54.16" height="52.907" fill="none"/>
    </clipPath>
  </defs>
  <g id="Group_859" data-name="Group 859" transform="translate(61.132 1.131)">
    <g id="Group_860" data-name="Group 860" transform="translate(0 0)">
      <g id="Group_862" data-name="Group 862" transform="translate(-61.132 -1.13)">
        <g id="Group_861" data-name="Group 861" transform="translate(0 -0.001)" clip-path="url(#clip-path)">
          <path id="Path_519" data-name="Path 519" d="M37.053,16.615A12.837,12.837,0,0,0,13.668,9.29,22.481,22.481,0,0,1,17.287,11.1,8.869,8.869,0,1,1,27.44,24.88a22.589,22.589,0,0,1,.638,3.983,12.865,12.865,0,0,0,8.975-12.248" transform="translate(13.346 3.68)" fill="#fff"/>
          <path id="Union_1" data-name="Union 1" d="M3159.58,314.554a18.727,18.727,0,0,1,25.269-17.6,12.853,12.853,0,0,0-.563,3.761,12.841,12.841,0,0,1,.563-3.759,18.757,18.757,0,0,1,11.584,12.582,8.875,8.875,0,0,1-8.195-8.823,8.878,8.878,0,0,0,8.195,8.825,18.732,18.732,0,0,1,.65,4.019c.016.33.049.656.049.991a18.776,18.776,0,0,1-37.552,0Zm4.942,0a13.835,13.835,0,1,0,27.5-2.054h0a13.826,13.826,0,0,0-27.5,2.054Z" transform="translate(-3159.58 -280.423)" fill="#fff" stroke="rgba(0,0,0,0)" stroke-miterlimit="10" stroke-width="1"/>
          <path id="Path_523" data-name="Path 523" d="M13.711,14.491l4.953,4.953a1.437,1.437,0,0,1,0,2.036l-4.953,4.953a1.439,1.439,0,0,1-2.034,0L6.722,21.48a1.441,1.441,0,0,1,0-2.036l4.955-4.953a1.439,1.439,0,0,1,2.034,0" transform="translate(6.153 13.74)" fill="#00ec96" fill-rule="evenodd"/>
          <path id="Path_524" data-name="Path 524" d="M5.643,16.236,2.1,14.468C4.3,10.09,7.3,7.109,11.044,5.613a20.106,20.106,0,0,1,4.949-1.3L14.466,3.036,17,0l5.929,4.941A1.976,1.976,0,0,1,21.275,8.4a15.02,15.02,0,0,0-8.76.885c-2.856,1.144-5.1,3.417-6.872,6.955" transform="translate(2.055 0.001)" fill="#00ec96"/>
          <path id="Path_525" data-name="Path 525" d="M25.648,35.741,18.761,32.26a1.976,1.976,0,0,1,.832-3.739,15.026,15.026,0,0,0,8.339-2.834c2.524-1.755,4.2-4.477,5.131-8.321l3.84.927c-1.148,4.761-3.407,8.341-6.716,10.641a20.4,20.4,0,0,1-4.528,2.384l1.773.9Z" transform="translate(17.258 16.958)" fill="#00ec96"/>
        </g>
      </g>
    </g>
  </g>
</svg>
