<svg id="Group_867" data-name="Group 867" xmlns="http://www.w3.org/2000/svg" xmlns:xlink="http://www.w3.org/1999/xlink" width="71.604" height="56.014" viewBox="0 0 71.604 56.014">
  <defs>
    <clipPath id="clip-path">
      <rect id="Rectangle_743" data-name="Rectangle 743" width="71.604" height="56.014" fill="none"/>
    </clipPath>
  </defs>
  <g id="Group_866" data-name="Group 866" clip-path="url(#clip-path)">
    <path id="Path_527" data-name="Path 527" d="M79.645,98.584a1.541,1.541,0,0,1-.768-2.877l5.369-3.078A1.541,1.541,0,1,1,85.779,95.3L80.41,98.381a1.535,1.535,0,0,1-.765.2" transform="translate(-56.741 -67.146)" fill="#00ec96"/>
    <path id="Path_528" data-name="Path 528" d="M161.77,97.18a1.529,1.529,0,0,1-.83-.244L155.3,93.321a1.54,1.54,0,1,1,1.662-2.594l5.641,3.615a1.541,1.541,0,0,1-.833,2.837" transform="translate(-112.309 -65.736)" fill="#00ec96"/>
    <path id="Path_529" data-name="Path 529" d="M16.274,140.263a.654.654,0,0,1-.3-.075L3.348,133.54A.653.653,0,0,1,3,132.962V117.749a.652.652,0,0,1,.973-.569l12.621,7.1a.653.653,0,0,1,.333.569v14.762a.652.652,0,0,1-.652.653m-11.969-7.7,11.316,5.961v-13.3L4.305,118.865Z" transform="translate(-2.179 -85.07)" fill="#f7f7f7"/>
    <path id="Path_530" data-name="Path 530" d="M14.095,138.907a1.48,1.48,0,0,1-.687-.17L.786,132.089a1.47,1.47,0,0,1-.786-1.3V115.572a1.473,1.473,0,0,1,2.2-1.283l12.621,7.1a1.475,1.475,0,0,1,.751,1.284v14.763a1.472,1.472,0,0,1-1.473,1.473M2.946,129.9l9.675,5.1v-11.46l-9.675-5.442Z" transform="translate(0 -82.893)" fill="#f7f7f7"/>
    <path id="Path_531" data-name="Path 531" d="M49.8,140.263a.652.652,0,0,1-.653-.653V124.848a.653.653,0,0,1,.333-.569l12.621-7.1a.653.653,0,0,1,.973.569v15.213a.653.653,0,0,1-.348.577L50.1,140.188a.651.651,0,0,1-.3.075m.653-15.033v13.3l11.316-5.961v-13.7Z" transform="translate(-35.705 -85.07)" fill="#f7f7f7"/>
    <path id="Path_532" data-name="Path 532" d="M47.62,138.907a1.472,1.472,0,0,1-1.473-1.473V122.671a1.475,1.475,0,0,1,.751-1.284l12.621-7.1a1.473,1.473,0,0,1,2.2,1.284v15.213a1.469,1.469,0,0,1-.786,1.3l-12.622,6.649a1.478,1.478,0,0,1-.686.17m1.473-15.374v11.46l9.675-5.1V118.091Z" transform="translate(-33.526 -82.893)" fill="#f7f7f7"/>
    <path id="Path_533" data-name="Path 533" d="M28.894,100.476a.651.651,0,0,1-.307-.077L16.274,93.815,3.96,100.4a.653.653,0,0,1-.615-1.151L15.966,92.5a.654.654,0,0,1,.615,0L29.2,99.248a.653.653,0,0,1-.308,1.228" transform="translate(-2.179 -67.145)" fill="#f7f7f7"/>
    <path id="Path_534" data-name="Path 534" d="M26.716,99.116a1.478,1.478,0,0,1-.694-.174L14.1,92.565,2.168,98.942a1.473,1.473,0,0,1-1.389-2.6L13.4,89.6a1.473,1.473,0,0,1,1.389,0l12.622,6.749a1.473,1.473,0,0,1-.695,2.773" transform="translate(-0.001 -64.964)" fill="#f7f7f7"/>
    <path id="Path_535" data-name="Path 535" d="M175.01,140.263a.652.652,0,0,1-.3-.075l-12.621-6.649a.653.653,0,0,1-.348-.577V117.749a.652.652,0,0,1,.973-.569l12.621,7.1a.653.653,0,0,1,.333.569v14.762a.652.652,0,0,1-.653.653m-11.969-7.7,11.316,5.961v-13.3l-11.316-6.365Z" transform="translate(-117.501 -85.07)" fill="#f7f7f7"/>
    <path id="Path_536" data-name="Path 536" d="M172.831,138.907a1.48,1.48,0,0,1-.686-.17l-12.622-6.649a1.47,1.47,0,0,1-.787-1.3V115.572a1.473,1.473,0,0,1,2.2-1.284l12.621,7.1a1.476,1.476,0,0,1,.751,1.284v14.763a1.472,1.472,0,0,1-1.473,1.473M161.683,129.9l9.675,5.1v-11.46l-9.675-5.442Z" transform="translate(-115.322 -82.893)" fill="#f7f7f7"/>
    <path id="Path_537" data-name="Path 537" d="M208.537,140.263a.652.652,0,0,1-.653-.653V124.848a.653.653,0,0,1,.333-.569l12.621-7.1a.653.653,0,0,1,.973.569v15.213a.653.653,0,0,1-.348.577l-12.621,6.649a.651.651,0,0,1-.3.075m.653-15.033v13.3l11.316-5.961v-13.7Z" transform="translate(-151.027 -85.07)" fill="#f7f7f7"/>
    <path id="Path_538" data-name="Path 538" d="M206.357,138.906a1.472,1.472,0,0,1-1.473-1.473V122.671a1.475,1.475,0,0,1,.751-1.284l12.621-7.1a1.473,1.473,0,0,1,2.2,1.284v15.213a1.469,1.469,0,0,1-.786,1.3l-12.622,6.649a1.483,1.483,0,0,1-.687.17m1.473-15.374v11.46l9.675-5.1V118.09Z" transform="translate(-148.847 -82.892)" fill="#f7f7f7"/>
    <path id="Path_539" data-name="Path 539" d="M187.631,100.476a.651.651,0,0,1-.307-.077l-12.314-6.584L162.7,100.4a.653.653,0,0,1-.615-1.151L174.7,92.5a.654.654,0,0,1,.615,0l12.621,6.748a.653.653,0,0,1-.308,1.228" transform="translate(-117.501 -67.145)" fill="#f7f7f7"/>
    <path id="Path_540" data-name="Path 540" d="M160.212,99.117a1.474,1.474,0,0,1-.7-2.773L172.137,89.6a1.473,1.473,0,0,1,1.389,0l12.622,6.748a1.473,1.473,0,1,1-1.389,2.6l-11.927-6.377L160.9,98.942a1.463,1.463,0,0,1-.692.175" transform="translate(-115.322 -64.964)" fill="#f7f7f7"/>
    <path id="Path_541" data-name="Path 541" d="M95.885,50.841a.652.652,0,0,1-.3-.075L82.959,44.118a.653.653,0,0,1-.348-.577V28.327a.652.652,0,0,1,.973-.569l12.621,7.1a.653.653,0,0,1,.333.569V50.189a.652.652,0,0,1-.653.653m-11.969-7.7,11.316,5.961v-13.3L83.916,29.443Z" transform="translate(-60.017 -20.105)" fill="#f7f7f7"/>
    <path id="Path_542" data-name="Path 542" d="M93.706,49.485a1.48,1.48,0,0,1-.686-.17L80.4,42.667a1.47,1.47,0,0,1-.787-1.3V26.15a1.473,1.473,0,0,1,2.2-1.284l12.621,7.1a1.474,1.474,0,0,1,.751,1.284V48.012a1.472,1.472,0,0,1-1.473,1.473M82.558,40.474l9.675,5.1V34.111l-9.675-5.442Z" transform="translate(-57.838 -17.928)" fill="#f7f7f7"/>
    <path id="Path_543" data-name="Path 543" d="M129.412,50.841a.652.652,0,0,1-.653-.653V35.426a.653.653,0,0,1,.333-.569l12.621-7.1a.653.653,0,0,1,.973.569V43.54a.653.653,0,0,1-.348.577l-12.621,6.649a.651.651,0,0,1-.3.075m.653-15.033v13.3l11.316-5.961v-13.7Z" transform="translate(-93.543 -20.105)" fill="#f7f7f7"/>
    <path id="Path_544" data-name="Path 544" d="M127.232,49.484a1.472,1.472,0,0,1-1.473-1.473V33.249a1.474,1.474,0,0,1,.752-1.284l12.62-7.1a1.473,1.473,0,0,1,2.2,1.284V41.363a1.469,1.469,0,0,1-.786,1.3l-12.622,6.649a1.482,1.482,0,0,1-.687.17m1.473-15.374v11.46l9.675-5.1V28.668Z" transform="translate(-91.363 -17.928)" fill="#f7f7f7"/>
    <path id="Path_545" data-name="Path 545" d="M108.506,11.054a.651.651,0,0,1-.307-.077L95.886,4.393,83.572,10.977a.653.653,0,0,1-.615-1.151L95.578,3.078a.654.654,0,0,1,.615,0l12.621,6.748a.653.653,0,0,1-.308,1.228" transform="translate(-60.017 -2.18)" fill="#f7f7f7"/>
    <path id="Path_546" data-name="Path 546" d="M81.085,9.7a1.474,1.474,0,0,1-.7-2.773L93.01.174a1.473,1.473,0,0,1,1.389,0L107.02,6.923a1.473,1.473,0,1,1-1.389,2.6L93.7,3.144,81.777,9.52a1.46,1.46,0,0,1-.692.175" transform="translate(-57.836 0)" fill="#f7f7f7"/>
  </g>
</svg>
