<svg xmlns="http://www.w3.org/2000/svg" xmlns:xlink="http://www.w3.org/1999/xlink" width="48.715" height="49.992" viewBox="0 0 48.715 49.992">
  <defs>
    <clipPath id="clip-path">
      <rect id="Rectangle_744" data-name="Rectangle 744" width="48.715" height="49.992" fill="none"/>
    </clipPath>
  </defs>
  <g id="Group_869" data-name="Group 869" transform="translate(43 0)">
    <g id="Group_868" data-name="Group 868" transform="translate(-43 0)" clip-path="url(#clip-path)">
      <path id="Path_547" data-name="Path 547" d="M17,29.252a2.442,2.442,0,0,1-1.735-.718L8.33,21.6a2.449,2.449,0,0,1,0-3.469l6.938-6.937a2.452,2.452,0,0,1,3.467,0l6.937,6.937a2.45,2.45,0,0,1,0,3.469l-6.937,6.937A2.441,2.441,0,0,1,17,29.252m-3.471-9.389L17,23.332l3.467-3.469L17,16.393Z" transform="translate(7.323 10.078)" fill="#00ec96"/>
      <path id="Path_548" data-name="Path 548" d="M36.431,13.573c2.149-1.6,4.231-3.771,4.231-6.214C40.662,1.55,30.393,0,24.324,0,14.059,0,8.173,2.682,8.173,7.358c0,2.771,1.776,5.072,3.395,6.6C5.108,18.092,0,24.581,0,30.37,0,41.207,4.631,49.992,24.253,49.992S48.715,41.207,48.715,30.37c0-5.92-5.49-12.668-12.284-16.8M13.078,7.358c0-.5,2.936-2.453,11.246-2.453,6.318,0,10.62,1.591,11.4,2.535-.336.826-2.294,2.4-4.46,3.628a20.46,20.46,0,0,0-6.937-1.358,21.3,21.3,0,0,0-8.049,1.776c-1.224-.861-3.2-2.663-3.2-4.129m27.35,33.364c-2.987,2.9-8.428,4.364-16.175,4.364-7.719,0-13.118-1.46-16.045-4.34-2.253-2.215-3.3-5.512-3.3-10.376,0-2.883,2.49-6.85,6.342-10.108,4.121-3.481,9.132-5.645,13.076-5.645s8.958,2.18,13.11,5.687c3.873,3.273,6.375,7.225,6.375,10.066,0,4.827-1.073,8.116-3.381,10.353" transform="translate(0 0)" fill="#fff"/>
    </g>
  </g>
</svg>
