<svg xmlns="http://www.w3.org/2000/svg" xmlns:xlink="http://www.w3.org/1999/xlink" width="44.925" height="58.97" viewBox="0 0 44.925 58.97">
  <defs>
    <clipPath id="clip-path">
      <rect id="Rectangle_732" data-name="Rectangle 732" width="44.924" height="58.969" transform="translate(0 0)" fill="none"/>
    </clipPath>
    <clipPath id="clip-path-2">
      <rect id="Rectangle_733" data-name="Rectangle 733" width="44.925" height="58.97" transform="translate(0 0)" fill="none"/>
    </clipPath>
  </defs>
  <g id="Group_857" data-name="Group 857" transform="translate(0 0)">
    <g id="Group_854" data-name="Group 854">
      <g id="Group_853" data-name="Group 853" clip-path="url(#clip-path)">
        <path id="Path_508" data-name="Path 508" d="M22.463,0,0,7.507V28.364A32.054,32.054,0,0,0,21.917,58.787l.546.183.546-.183A32.054,32.054,0,0,0,44.925,28.364V7.507ZM41.469,28.364A28.57,28.57,0,0,1,22.463,55.321,28.571,28.571,0,0,1,3.457,28.364V10L22.463,3.644,41.469,10Z" fill="#fff"/>
      </g>
    </g>
    <g id="Group_856" data-name="Group 856">
      <g id="Group_855" data-name="Group 855" clip-path="url(#clip-path-2)">
        <path id="Path_509" data-name="Path 509" d="M13.078,24c.013-.018.028-.036.04-.055a.237.237,0,0,1,.2-.118c.026,0,.051,0,.077,0h3.367c.026,0,.052,0,.077,0a.229.229,0,0,1,.22.211.6.6,0,0,1,0,.085q0,.49,0,.982c0,.022,0,.045,0,.068a.232.232,0,0,1-.231.228c-.028,0-.057,0-.085,0H15.014l-.113,0c-.005.024-.012.042-.014.061a.657.657,0,0,0,0,.077v2.04a.824.824,0,0,0,0,.111.2.2,0,0,0,.188.178c.025,0,.051,0,.077,0,.712,0,1.424,0,2.136,0a1.517,1.517,0,0,0,.6-.118,1.075,1.075,0,0,0,.67-.824,2.234,2.234,0,0,0,.023-.272.923.923,0,0,1,.009-.118.213.213,0,0,1,.179-.173.586.586,0,0,1,.119-.009h1.162a.74.74,0,0,1,.094,0,.225.225,0,0,1,.211.219c0,.053,0,.108,0,.162a2.461,2.461,0,0,1-.237,1,2.024,2.024,0,0,1-.722.836l-.042.029s-.006.009-.012.018c.021.027.057.033.086.047a2.245,2.245,0,0,1,.827.619,2.536,2.536,0,0,1,.532,1.1A3.458,3.458,0,0,1,20.6,32.3a2.5,2.5,0,0,1-1.138,1.273,3.028,3.028,0,0,1-.947.328,4.56,4.56,0,0,1-.817.07H13.32a.233.233,0,0,1-.2-.12c-.012-.019-.025-.037-.038-.056V24m3.282,8.362h1.153a1.749,1.749,0,0,0,.775-.18,1.329,1.329,0,0,0,.721-.863,1.511,1.511,0,0,0,.027-.685,1.311,1.311,0,0,0-.738-.994,1.7,1.7,0,0,0-.751-.17c-.245,0-.49,0-.735,0h-1.64a.547.547,0,0,0-.127.012.193.193,0,0,0-.156.161.577.577,0,0,0-.008.1v2.346a.434.434,0,0,0,0,.051.214.214,0,0,0,.231.22H16.36" fill="#fff"/>
        <path id="Path_510" data-name="Path 510" d="M19.471,25.04h-.6a.8.8,0,0,1-.085,0,.207.207,0,0,1-.189-.189.515.515,0,0,1,0-.068V23.672a.654.654,0,0,1,0-.077.205.205,0,0,1,.179-.18.6.6,0,0,1,.085,0h1.23c.02,0,.04,0,.06,0a.212.212,0,0,1,.2.2c0,.02,0,.04,0,.06v1.1a.108.108,0,0,0,0,.018.227.227,0,0,1-.247.249c-.214-.007-.427,0-.641,0" fill="#00ec96"/>
        <path id="Path_511" data-name="Path 511" d="M23.556,24.066a.219.219,0,0,0-.188-.211.583.583,0,0,0-.1-.007H22.12a.671.671,0,0,0-.11.008.22.22,0,0,0-.188.2c0,.025,0,.051,0,.077v9.536c0,.026,0,.051,0,.077a.224.224,0,0,0,.218.21h1.283a.227.227,0,0,0,.234-.23c0-.031,0-.062,0-.094V24.16c0-.031,0-.063,0-.094" fill="#fff"/>
        <path id="Path_512" data-name="Path 512" d="M32.122,23.843H24.843a.237.237,0,0,0-.238.238V25.39a.238.238,0,0,0,.238.238h2.446a.238.238,0,0,1,.238.237v7.857a.238.238,0,0,0,.238.238H29.2a.239.239,0,0,0,.238-.238V25.865a.237.237,0,0,1,.238-.237h2.446a.239.239,0,0,0,.238-.238V24.081a.238.238,0,0,0-.238-.238" fill="#fff"/>
      </g>
    </g>
  </g>
</svg>
